<svg xmlns="http://www.w3.org/2000/svg" width="195.067" height="45" viewBox="0 0 195.067 45"><defs><style>.a{fill:#695ff7;}</style></defs><g transform="translate(-210.289 -216.041)"><path d="M305.975,251.175a12.259,12.259,0,0,1,2.888-4.939c.224-.228.462-.442.705-.649a11.924,11.924,0,0,0-4.933-.97,4.694,4.694,0,0,0-3.4,1.245,9.1,9.1,0,0,0-2.106,3.4H298.8l-.526-4.067h-5.6v25.175h6.558V258.211a8.21,8.21,0,0,1,1.436-5.289q1.436-1.747,4.643-1.747Z" transform="translate(-55.749 -19.338)"/><path d="M340.035,268.171q-3.081-3.127-3.081-9.71t3.081-9.711q3.081-3.127,9.383-3.128t9.407,3.128q3.1,3.128,3.1,9.711t-3.1,9.71q-3.105,3.128-9.407,3.128T340.035,268.171Zm13.912-3.9a8.774,8.774,0,0,0,1.4-5.439v-.747a8.775,8.775,0,0,0-1.4-5.439,5.391,5.391,0,0,0-4.528-1.8q-3.128,0-4.505,1.8a8.886,8.886,0,0,0-1.377,5.439v.747a8.885,8.885,0,0,0,1.377,5.439q1.377,1.8,4.505,1.8A5.388,5.388,0,0,0,353.947,264.273Z" transform="translate(-85.718 -20.018)"/><path d="M414.008,246.4h6.749l2.728,10.339q.431,1.676,1.484,7.227h.191q1.053-5.121,1.532-7.18l2.585-10.387h6.749l2.728,10.434q.575,2.2,1.58,7.132h.191q.909-4.595,1.532-7.132l2.585-10.434h6.223L443.4,271.572h-6.8l-2.872-12.014q-.528-2.3-1.149-5.552h-.24a51.118,51.118,0,0,1-1,5.5l-3.016,12.062h-6.8Z" transform="translate(-137.863 -20.542)"/><path class="a" d="M515.825,260.6a14.091,14.091,0,0,1-2.13-.54l.814-4.711H516.9a2.246,2.246,0,0,0,2.393-2.11l3.79-21.858h-4.031l1.59-5.5h3.4l.422-2.729a9.6,9.6,0,0,1,2.322-5.08,6.707,6.707,0,0,1,5.242-2.037,13.283,13.283,0,0,1,2.417.246,21.58,21.58,0,0,1,2.776.863l-1.137,4.388h-2.716a2.247,2.247,0,0,0-2.394,2.11l-.374,2.238h6.186l-1.4,5.5h-5.744l-3.837,22.349a9.606,9.606,0,0,1-2.322,5.079,6.708,6.708,0,0,1-5.241,2.037A13.312,13.312,0,0,1,515.825,260.6Zm25.415-44.394H547.8l-6.446,34.966h-6.558Z" transform="translate(-205.324)"/><path class="a" d="M621.221,269.959a10.185,10.185,0,0,1-3.977-3.649,10.013,10.013,0,0,1-1.521-5.287,22.619,22.619,0,0,1,.328-4.07,13.9,13.9,0,0,1,4.3-8.468q3.368-2.947,9.31-2.948a12.325,12.325,0,0,1,5.754,1.31,10.156,10.156,0,0,1,4,3.649,10.018,10.018,0,0,1,1.52,5.287,22.685,22.685,0,0,1-.327,4.07,13.84,13.84,0,0,1-4.328,8.468q-3.393,2.947-9.38,2.948A12.074,12.074,0,0,1,621.221,269.959ZM632.31,264.2a9.63,9.63,0,0,0,2.222-5.615,18.578,18.578,0,0,0,.187-2.713,5.07,5.07,0,0,0-1.474-3.743,5.508,5.508,0,0,0-3.953-1.356,6.525,6.525,0,0,0-4.936,1.825,9.617,9.617,0,0,0-2.222,5.614,18.489,18.489,0,0,0-.187,2.713,5.062,5.062,0,0,0,1.474,3.743,5.5,5.5,0,0,0,3.953,1.357A6.529,6.529,0,0,0,632.31,264.2Z" transform="translate(-274.371 -19.961)"/><path class="a" d="M699.7,246.4h6.461l.91,10.339q.143,1.676.286,7.227h.192q1.867-5.121,2.728-7.18l4.4-10.387h6.749l.861,10.434q.191,2.2.431,7.132h.191q1.58-4.595,2.681-7.132l4.451-10.434h6.51l-11.918,25.177h-6.8l-.766-12.014q-.144-2.3-.144-5.552h-.239a48.624,48.624,0,0,1-1.963,5.5l-5.169,12.062h-6.8Z" transform="translate(-331.2 -20.542)"/><path d="M227.172,254.343h-8.335c-.14,0-.278.009-.417.019l-.083.007a1.577,1.577,0,0,1-1.039-.314.914.914,0,0,1-.335-.744.858.858,0,0,1,.355-.746,2.035,2.035,0,0,1,1.221-.314h3.71c3.261,0,5.84-.759,7.665-2.257a7.673,7.673,0,0,0,2.794-6.237c0-2.022-.264-3.725-1.542-5.172a7.515,7.515,0,0,0,3.343-2.014,6.185,6.185,0,0,0,1.424-4.164v-.465h-6.129l-.037.425a4.459,4.459,0,0,1-.7,1.925,4.815,4.815,0,0,1-1.6,1.748,25.9,25.9,0,0,0-5.494-.733c-3.317,0-5.946.75-7.815,2.23a7.532,7.532,0,0,0-2.869,6.221,7.95,7.95,0,0,0,.94,3.858,7.541,7.541,0,0,0,1.874,2.245,6.969,6.969,0,0,0-2.178,1.257,3.752,3.752,0,0,0-1.361,2.957,4.756,4.756,0,0,0,2.028,3.891,9.628,9.628,0,0,0,3.918,1.889,15.76,15.76,0,0,0,3.994.162c.542-.024,1.055-.047,1.559-.047h5.1a3.1,3.1,0,0,1,0,6.207h-8.335a3.073,3.073,0,0,1-3.034-3.1,3.158,3.158,0,0,1,.227-1.162l.077-.211-.22-.045a10.079,10.079,0,0,1-1.947-.582,9.2,9.2,0,0,1-2.567-1.667l-.2-.17-.109.245a8.751,8.751,0,0,0-.772,3.592,8.651,8.651,0,0,0,8.549,8.73h8.335a8.732,8.732,0,0,0,0-17.46Zm-9.53-10.585a3.5,3.5,0,0,1,1.067-2.769h0a6.084,6.084,0,0,1,6.629,0,4.125,4.125,0,0,1,0,5.538,4.85,4.85,0,0,1-3.314.981,4.928,4.928,0,0,1-3.318-.962A3.491,3.491,0,0,1,217.642,243.758Z" transform="translate(0 -10.761)"/></g></svg>