<svg xmlns="http://www.w3.org/2000/svg" width="161" height="186" viewBox="0 0 161 186"><defs><style>.a{fill:#ffcc3e;font-size:23px;font-family:SegoeUI, Segoe UI;}</style></defs><g transform="translate(0 3.017)"><text class="a" transform="translate(0 21.983)"><tspan x="0" y="0">+</tspan></text><text class="a" transform="translate(0 52.983)"><tspan x="0" y="0">+</tspan></text><text class="a" transform="translate(0 83.983)"><tspan x="0" y="0">+</tspan></text><text class="a" transform="translate(0 114.983)"><tspan x="0" y="0">+</tspan></text><text class="a" transform="translate(0 145.983)"><tspan x="0" y="0">+</tspan></text><text class="a" transform="translate(0 176.983)"><tspan x="0" y="0">+</tspan></text><text class="a" transform="translate(29 21.983)"><tspan x="0" y="0">+</tspan></text><text class="a" transform="translate(29 52.983)"><tspan x="0" y="0">+</tspan></text><text class="a" transform="translate(29 83.983)"><tspan x="0" y="0">+</tspan></text><text class="a" transform="translate(29 114.983)"><tspan x="0" y="0">+</tspan></text><text class="a" transform="translate(29 145.983)"><tspan x="0" y="0">+</tspan></text><text class="a" transform="translate(29 176.983)"><tspan x="0" y="0">+</tspan></text><text class="a" transform="translate(58 21.983)"><tspan x="0" y="0">+</tspan></text><text class="a" transform="translate(58 52.983)"><tspan x="0" y="0">+</tspan></text><text class="a" transform="translate(58 83.983)"><tspan x="0" y="0">+</tspan></text><text class="a" transform="translate(58 114.983)"><tspan x="0" y="0">+</tspan></text><text class="a" transform="translate(58 145.983)"><tspan x="0" y="0">+</tspan></text><text class="a" transform="translate(58 176.983)"><tspan x="0" y="0">+</tspan></text><text class="a" transform="translate(87 21.983)"><tspan x="0" y="0">+</tspan></text><text class="a" transform="translate(87 52.983)"><tspan x="0" y="0">+</tspan></text><text class="a" transform="translate(87 83.983)"><tspan x="0" y="0">+</tspan></text><text class="a" transform="translate(87 114.983)"><tspan x="0" y="0">+</tspan></text><text class="a" transform="translate(87 145.983)"><tspan x="0" y="0">+</tspan></text><text class="a" transform="translate(87 176.983)"><tspan x="0" y="0">+</tspan></text><text class="a" transform="translate(116 21.983)"><tspan x="0" y="0">+</tspan></text><text class="a" transform="translate(116 52.983)"><tspan x="0" y="0">+</tspan></text><text class="a" transform="translate(116 83.983)"><tspan x="0" y="0">+</tspan></text><text class="a" transform="translate(116 114.983)"><tspan x="0" y="0">+</tspan></text><text class="a" transform="translate(116 145.983)"><tspan x="0" y="0">+</tspan></text><text class="a" transform="translate(116 176.983)"><tspan x="0" y="0">+</tspan></text><text class="a" transform="translate(145 21.983)"><tspan x="0" y="0">+</tspan></text><text class="a" transform="translate(145 52.983)"><tspan x="0" y="0">+</tspan></text><text class="a" transform="translate(145 83.983)"><tspan x="0" y="0">+</tspan></text><text class="a" transform="translate(145 114.983)"><tspan x="0" y="0">+</tspan></text><text class="a" transform="translate(145 145.983)"><tspan x="0" y="0">+</tspan></text><text class="a" transform="translate(145 176.983)"><tspan x="0" y="0">+</tspan></text></g></svg>